<svg xmlns="http://www.w3.org/2000/svg" viewBox="0 0 286.45 75"><defs><style>.cls-1{fill:#fff;}</style></defs><title>logo.svg</title><g id="レイヤー_2" data-name="レイヤー 2"><g id="レイヤー_2-2" data-name="レイヤー 2"><path class="cls-1" d="M92.74,25.71a18.11,18.11,0,0,1,2.91,2.69V26.89h12.64V37.48h-2.37V36.6H98v.88H95.65V28.81l-1.23,2a24.85,24.85,0,0,0-1.68-2.25v8.94H90.23V28.73a25.45,25.45,0,0,1-2.55,2.69L86.45,29A22.74,22.74,0,0,0,92,22.07H87.15V19.6h2.91V15.68h2.52V19.6h1.81l1,1.07a29.17,29.17,0,0,1-2.69,4.75Zm16-9.06v2.13H95V16.65Zm-1.77,9H96.74V20H107Zm-9,5.11h2.81v-2H98Zm0,3.83h2.81v-2H98Zm1.19-10.78h5.3v-2h-5.3Zm6.71,5H103v2h2.91Zm0,3.75H103v2h2.91Z"/><path class="cls-1" d="M132,34.86c0,1.84-.63,2.4-2.67,2.4-1.23,0-2.59,0-3.82-.15l-.66-2.83c1.34.14,2.62.24,3.59.24.7,0,.89-.14.89-.75V19.1H115.14V37.48h-2.66V16.77H132Zm-6.76-8.11h2.23v6.68h-8.4v1.24h-2.23V26.75h2.23v4.41h1.84V25.71h-4.8V23.53h6.71l.07-.15a18.71,18.71,0,0,0,1.72-4.09l2.57.87a37.63,37.63,0,0,1-1.89,3.37h3.08v2.18h-5.14v5.45h2Zm-6.61-3.32a12.49,12.49,0,0,0-1.45-3.07l2.4-.95a20.25,20.25,0,0,1,1.59,3Z"/><path class="cls-1" d="M157.08,19.31v2.47h-9.29v2.43h7.45v8.3c0,1.77-.63,2.37-2.42,2.37-.94,0-2.23-.07-3.17-.16L149.24,32a14.36,14.36,0,0,0,2.52.27c.55,0,.68-.14.68-.77V26.58h-4.65v10.9H145V26.58h-4.12v8.47h-2.81V24.21H145V21.78H135.8V19.31h9.13V15.92h2.9v3.39Z"/><path class="cls-1" d="M171.69,33.53a65.67,65.67,0,0,0,2.85-10.29l3,.75a70.11,70.11,0,0,1-2.93,9.54h6.68v2.61H160V33.53ZM180.35,20v2.57H161V20h8.16V16h2.91V20ZM165.63,32.85a54.76,54.76,0,0,0-2.18-8.6l2.86-.77A58.94,58.94,0,0,1,168.56,32Z"/><rect class="cls-1" x="194.07" y="23.5" width="3.85" height="1.3"/><rect class="cls-1" x="194.07" y="26.31" width="3.85" height="1.32"/><path class="cls-1" d="M198.91,12.5a14.8,14.8,0,1,0,14.8,14.8A14.8,14.8,0,0,0,198.91,12.5Zm8.63,23a15.37,15.37,0,0,1-7.26-5.93v6.73h-2.42V29.64a17,17,0,0,1-7,6.27l-1.55-2.12a15,15,0,0,0,6.83-4.51h-2.06V30h-2.29V21.86h6.08V20.71h-8.13V18.77h8.13v-2h2.42v2h8.26v1.94h-8.26v1.15h6.2V30h-2.29v-.71h-2a16,16,0,0,0,6.86,4Z"/><rect class="cls-1" x="200.21" y="26.31" width="3.98" height="1.32"/><rect class="cls-1" x="200.21" y="23.5" width="3.98" height="1.3"/><path class="cls-1" d="M221.36,37.48h-2.67V26.36c-.6.92-.94,1.41-1.62,2.35L215.74,26a26.26,26.26,0,0,0,4.75-10.15l2.69.56a34.1,34.1,0,0,1-1.82,5.06ZM231.43,23a24.76,24.76,0,0,0,6.76,7.9l-1.82,2.64A32.68,32.68,0,0,1,231,26.09v4.63h2.81v2.42H231v4.34h-2.76V33.14h-2.49V30.91A22,22,0,0,1,223.13,34l-1.67-2.52A21.51,21.51,0,0,0,227.87,23H222.5V20.57h5.76V15.92H231v4.65h6.3V23Zm-3.1,7.68V26.41a24.32,24.32,0,0,1-2.44,4.31Z"/><path class="cls-1" d="M256.64,20.11a38.42,38.42,0,0,1,5,3.66l-2.44,1.79a20.78,20.78,0,0,0-1.62-1.69c-4.89.46-9.5.7-15.6.84l-.7-2.22h.24c1,0,1.07,0,2.4,0l1.69,0c.44-.68,1-1.62,1.34-2.33h-6.23V18h9.11v-2.3h2.81V18h9.22v2.13Zm2.25,15c0,1.65-.6,2.23-2.32,2.23-.92,0-2.38-.07-3.83-.19l-.46-2.42a26,26,0,0,0,3.25.31c.5,0,.65-.17.65-.7v-1h-9.86v4.14h-2.71V25.37h15.28Zm-12.57-6.61h9.86V27.21h-9.86Zm0,3.1h9.86V30.24h-9.86Zm3.61-11.48c-.51.92-.92,1.58-1.38,2.28l5.06-.17,2.11-.1c-.73-.55-1.36-1-1.94-1.35l1.38-.66Z"/><path class="cls-1" d="M269.26,20.4h2.18v2h2.73v7.63H268.6v3.41c.75-.19,1.72-.48,2.84-.87a12.53,12.53,0,0,0-.78-1.48l2-.8a30.28,30.28,0,0,1,2.55,5L273,36.65c-.22-.72-.51-1.62-.71-2.08a54.55,54.55,0,0,1-6.37,2.37L264.8,34.4l1.48-.31V23.7c-.34.36-.56.6-1.17,1.21L264,22.41a18.64,18.64,0,0,0,5.06-6.9l2.4.53-.36.73a23.66,23.66,0,0,1,3.77,3V18.22h4.31V15.68h2.52v2.54h4.75v4.31h-1.53V28h-6.39v1.8h7v7.7h-2.49v-1h-4.53v1h-2.37V22.53h-1.29V20.4l-1.28,1.77a21.84,21.84,0,0,0-3.51-3.53,27.74,27.74,0,0,1-2.69,3.8h1.87Zm2.64,5V24.13h-3.3v1.29Zm0,2.95V27h-3.3v1.36Zm5.4-6.32H284V20.36h-6.7ZM278.53,24v2.1h4.09V24Zm0,7.92v2.3h4.53v-2.3Z"/><path class="cls-1" d="M88.6,51.22h2.05v1.44H88.6v4.16H87V46.75h4.19v1.44H88.6Z"/><path class="cls-1" d="M95.1,46.75v7.77c0,.71.32,1,.82,1s.82-.26.82-1V46.75h1.5v7.66c0,1.61-.81,2.53-2.36,2.53s-2.36-.92-2.36-2.53V46.75Z"/><path class="cls-1" d="M103,52.81l-.49.91v3.1h-1.58V46.75h1.58v4.39l2.07-4.39h1.58L104,51.24l2.2,5.58h-1.62Z"/><path class="cls-1" d="M110,46.75v7.77c0,.71.31,1,.82,1s.82-.26.82-1V46.75h1.49v7.66c0,1.61-.8,2.53-2.36,2.53s-2.35-.92-2.35-2.53V46.75Z"/><path class="cls-1" d="M115.74,49.17a2.4,2.4,0,1,1,4.8,0V54.4a2.4,2.4,0,1,1-4.8,0Zm1.58,5.33c0,.72.31,1,.82,1s.82-.27.82-1V49.07c0-.72-.32-1-.82-1s-.82.27-.82,1Z"/><path class="cls-1" d="M125.25,52.81l-.48.91v3.1h-1.59V46.75h1.59v4.39l2.06-4.39h1.59l-2.2,4.49,2.2,5.58h-1.63Z"/><path class="cls-1" d="M135.88,56.82h-1.6L134,55h-1.94l-.27,1.83h-1.46L132,46.75h2.32Zm-3.61-3.2h1.52L133,48.54Z"/><path class="cls-1" d="M146.68,53.06V54.4c0,1.61-.81,2.53-2.36,2.53S142,56,142,54.4V49.17c0-1.61.81-2.53,2.36-2.53s2.36.92,2.36,2.53v1h-1.5V49.07c0-.72-.31-1-.82-1s-.82.27-.82,1V54.5c0,.72.32,1,.82,1s.82-.26.82-1V53.06Z"/><path class="cls-1" d="M149.27,46.75h1.58V56.82h-1.58Z"/><path class="cls-1" d="M153.16,46.75h4.89v1.44H156.4v8.63h-1.58V48.19h-1.66Z"/><path class="cls-1" d="M161.85,53.48l-2-6.73h1.65l1.21,4.59,1.21-4.59h1.51l-2,6.73v3.34h-1.58Z"/><path class="cls-1" d="M173.12,56.82h-1.58V46.75h1.58v4.32h1.8V46.75h1.61V56.82h-1.61V52.5h-1.8Z"/><path class="cls-1" d="M179.3,46.75h1.58V56.82H179.3Z"/><path class="cls-1" d="M186,51.21h2.22V54.4c0,1.61-.81,2.53-2.36,2.53s-2.36-.92-2.36-2.53V49.17c0-1.61.81-2.53,2.36-2.53s2.36.92,2.36,2.53v1h-1.5V49.07c0-.72-.32-1-.82-1s-.82.27-.82,1V54.5c0,.72.32,1,.82,1s.82-.26.82-1V52.65H186Z"/><path class="cls-1" d="M196,56.82h-1.6L194.14,55H192.2l-.27,1.83h-1.45l1.61-10.07h2.31Zm-3.61-3.2h1.53l-.77-5.08Z"/><path class="cls-1" d="M200.5,46.64c1.54,0,2.33.92,2.33,2.53v.32h-1.5v-.42c0-.72-.29-1-.79-1s-.79.27-.79,1c0,2.07,3.09,2.46,3.09,5.33,0,1.61-.8,2.53-2.36,2.53s-2.35-.92-2.35-2.53v-.62h1.49v.72c0,.72.32,1,.82,1s.82-.26.82-1c0-2.07-3.09-2.46-3.09-5.33C198.17,47.56,199,46.64,200.5,46.64Z"/><path class="cls-1" d="M207,56.82h-1.58V46.75H207v4.32h1.8V46.75h1.61V56.82h-1.61V52.5H207Z"/><path class="cls-1" d="M213.14,46.75h1.58V56.82h-1.58Z"/><path class="cls-1" d="M223.72,51.21h2.21V54.4c0,1.61-.8,2.53-2.35,2.53s-2.36-.92-2.36-2.53V49.17c0-1.61.8-2.53,2.36-2.53s2.35.92,2.35,2.53v1h-1.49V49.07c0-.72-.32-1-.82-1s-.82.27-.82,1V54.5c0,.72.32,1,.82,1s.82-.26.82-1V52.65h-.72Z"/><path class="cls-1" d="M230.06,53.48l-2-6.73h1.66l1.2,4.59,1.21-4.59h1.51l-2,6.73v3.34h-1.58Z"/><path class="cls-1" d="M239.25,53.9l1.07-7.15h2.2V56.82H241V49.6l-1.09,7.22h-1.5l-1.18-7.12v7.12h-1.38V46.75h2.2Z"/><path class="cls-1" d="M246.71,49.53v7.29h-1.42V46.75h2l1.62,6v-6h1.41V56.82h-1.62Z"/><path class="cls-1" d="M258.18,56.82h-1.59L256.31,55h-1.94l-.27,1.83h-1.45l1.61-10.07h2.31Zm-3.61-3.2h1.53l-.76-5.08Z"/><path class="cls-1" d="M262.67,46.64c1.54,0,2.33.92,2.33,2.53v.32h-1.5v-.42c0-.72-.29-1-.79-1s-.79.27-.79,1c0,2.07,3.09,2.46,3.09,5.33,0,1.61-.8,2.53-2.36,2.53S260.3,56,260.3,54.4v-.62h1.49v.72c0,.72.32,1,.82,1s.82-.26.82-1c0-2.07-3.09-2.46-3.09-5.33C260.34,47.56,261.13,46.64,262.67,46.64Z"/><path class="cls-1" d="M267.54,46.75h1.58V56.82h-1.58Z"/><path class="cls-1" d="M273.41,46.75v7.77c0,.71.32,1,.82,1s.82-.26.82-1V46.75h1.49v7.66c0,1.61-.8,2.53-2.35,2.53s-2.36-.92-2.36-2.53V46.75Z"/><path class="cls-1" d="M282.6,53.9l1.07-7.15h2.2V56.82h-1.49V49.6l-1.09,7.22h-1.5l-1.18-7.12v7.12h-1.38V46.75h2.2Z"/><path class="cls-1" d="M74.24,45c.06-.28.11-.56.16-.85l0-.07c.16-.91.29-1.82.38-2.74a.57.57,0,0,0,0-.13c0-.25,0-.5.07-.75,0-.08,0-.16,0-.24s0-.44,0-.66,0-.18,0-.27,0-.45,0-.68c0-.07,0-.15,0-.22,0-.3,0-.61,0-.91s0-.61,0-.91c0-.07,0-.15,0-.22,0-.23,0-.46,0-.68s0-.18,0-.27,0-.44,0-.66,0-.16,0-.24c0-.25,0-.5-.07-.75a.57.57,0,0,0,0-.13c-.09-.92-.22-1.83-.38-2.74l0-.07c-.05-.29-.1-.57-.16-.85v-.05A37.18,37.18,0,0,0,72.86,25l-.46-1.32h0A37.73,37.73,0,0,0,58.42,6.39a2.48,2.48,0,0,0-.4-.26,37.41,37.41,0,0,0-41,0,2.48,2.48,0,0,0-.4.26A37.73,37.73,0,0,0,2.64,23.68h0L2.14,25A37,37,0,0,0,.77,29.92V30c-.06.28-.11.56-.16.84l0,.09c0,.29-.1.58-.14.87v0C.34,32.41.26,33,.2,33.63c0,.06,0,.12,0,.17l-.06.71c0,.09,0,.18,0,.27s0,.41,0,.62,0,.2,0,.3,0,.42,0,.63,0,.18,0,.27c0,.3,0,.6,0,.9s0,.6,0,.9c0,.09,0,.18,0,.27s0,.42,0,.63,0,.2,0,.3,0,.41,0,.62,0,.18,0,.27l.06.7c0,.06,0,.12,0,.18.06.61.14,1.22.23,1.83v0c0,.29.09.57.14.86l0,.1c.05.27.1.55.16.82v.07A37,37,0,0,0,2.14,50l.46,1.32h0A37.68,37.68,0,0,0,13.76,66.51a2.69,2.69,0,0,0,.37.3,37.44,37.44,0,0,0,46.74,0,2.69,2.69,0,0,0,.37-.3A37.68,37.68,0,0,0,72.36,51.32h0L72.86,50a36.77,36.77,0,0,0,1.37-4.93Zm-3.28-5c0,.35-.06.69-.1,1,0,.13,0,.26,0,.39s-.06.49-.09.74,0,.24,0,.36c0,.32-.11.64-.16.95s-.06.32-.1.48-.07.38-.11.57-.11.48-.17.72l-.15.62c0,.2-.11.4-.16.59l-.11.38-.14.47H39.47v-7.9H71c0,.13,0,.25,0,.37A1.62,1.62,0,0,0,71,40.06ZM5.29,46.9l-.11-.38c0-.19-.11-.39-.16-.59s-.11-.43-.16-.65l-.15-.68c0-.19-.09-.39-.13-.59l-.09-.46c0-.32-.11-.64-.16-1,0-.11,0-.23,0-.34s-.07-.52-.1-.77,0-.25,0-.37c0-.35-.07-.7-.1-1.06a1.09,1.09,0,0,0,0-.18c0-.13,0-.26,0-.4H35.53v7.9H5.43ZM4,35c0-.36.06-.71.1-1.05,0-.13,0-.25,0-.38s.07-.51.1-.77,0-.23,0-.34c0-.32.11-.64.16-.95L4.58,31c0-.19.08-.38.13-.58s.1-.47.16-.7L5,29.07c.05-.2.11-.4.16-.59s.07-.25.11-.37.09-.32.14-.48h30.1v7.9H4c0-.14,0-.27,0-.4A1.09,1.09,0,0,0,4,35Zm65.67-6.84c0,.12.07.24.11.36s.11.4.16.6l.15.6c.06.24.11.49.17.74s.08.38.11.57.07.32.1.48c0,.32.11.63.16.95,0,.12,0,.24,0,.36s.07.5.09.74,0,.26,0,.4c0,.34.07.68.1,1a1.62,1.62,0,0,0,0,.22c0,.12,0,.24,0,.37H39.47v-7.9h30.1C69.62,27.79,69.67,28,69.71,28.11ZM35.53,71a33.3,33.3,0,0,1-17-5.82l17-12Zm3.94-17.83,17,12a33.3,33.3,0,0,1-17,5.82Zm28.6-29.48H39.47V15.73a37.18,37.18,0,0,0,17.61-5.46A33.72,33.72,0,0,1,68.07,23.68ZM39.47,4A33.26,33.26,0,0,1,53.28,7.9a33.25,33.25,0,0,1-13.81,3.88Zm-3.94,7.77A33.25,33.25,0,0,1,21.72,7.9,33.26,33.26,0,0,1,35.53,4ZM17.92,10.27a37.18,37.18,0,0,0,17.61,5.46v8H6.93A33.72,33.72,0,0,1,17.92,10.27Zm-11,41.05H31.29l-16,11.31A33.68,33.68,0,0,1,6.93,51.32ZM59.71,62.63l-16-11.31H68.07A33.81,33.81,0,0,1,59.71,62.63Z"/></g></g></svg>